<svg xmlns="http://www.w3.org/2000/svg" viewBox="0 0 520 320">
<defs>
<linearGradient id="bg" x1="0" x2="1" y1="0" y2="1"><stop stop-color="#061009"/><stop offset=".65" stop-color="#101712"/><stop offset="1" stop-color="#020303"/></linearGradient>
<radialGradient id="glow" cx="72%" cy="26%"><stop stop-color="#45ff5f" stop-opacity=".48"/><stop offset=".65" stop-color="#45ff5f" stop-opacity=".06"/><stop offset="1" stop-color="#45ff5f" stop-opacity="0"/></radialGradient>
</defs>
<rect width="520" height="320" rx="34" fill="url(#bg)"/>
<rect width="520" height="320" rx="34" fill="url(#glow)"/>
<text x="24" y="38" fill="#45ff5f" font-family="Arial" font-size="15" font-weight="900">PACK 01 · EX0010</text>
<text x="496" y="38" fill="#9fb0a7" font-family="Arial" font-size="14" text-anchor="end">PROFIL · BARRE</text>
<line x1="120" y1="82" x2="400" y2="82" stroke="#f4fff8" stroke-width="8" stroke-linecap="round"/><circle cx="104" cy="82" r="20" fill="#45ff5f" opacity=".34"/><circle cx="416" cy="82" r="20" fill="#45ff5f" opacity=".34"/>
<g transform="translate(260 158)"><circle cx="0" cy="-60" r="18" fill="#f4fff8"/><line x1="0" y1="-40" x2="0" y2="35" stroke="#f4fff8" stroke-width="13"/><path d="M0 -25 C-70 -75 -112 -60 -132 -35" stroke="#45ff5f" stroke-width="12" fill="none" stroke-linecap="round"/><path d="M0 -25 C70 -75 112 -60 132 -35" stroke="#45ff5f" stroke-width="12" fill="none" stroke-linecap="round"/><line x1="0" y1="35" x2="-48" y2="105" stroke="#f4fff8" stroke-width="12"/><line x1="0" y1="35" x2="48" y2="105" stroke="#f4fff8" stroke-width="12"/></g>
<text x="260" y="266" fill="#f4fff8" font-family="Arial" font-size="21" font-weight="900" text-anchor="middle">Écarté haltères</text>
<text x="260" y="292" fill="#9fb0a7" font-family="Arial" font-size="14" text-anchor="middle">💪 Haut du corps · FLY</text>
</svg>